<?xml version="1.0" encoding="UTF-8"?><svg id="Layer_2" xmlns="http://www.w3.org/2000/svg" xmlns:xlink="http://www.w3.org/1999/xlink" viewBox="0 0 468.79 276.42"><defs><style>.cls-1{clip-path:url(#clippath);}.cls-2{fill:none;}.cls-2,.cls-3,.cls-4,.cls-5,.cls-6,.cls-7,.cls-8{stroke-width:0px;}.cls-3{fill:#263395;}.cls-4{fill:#566bff;}.cls-5{fill:#0a0f33;}.cls-6{fill:#d9d9d9;}.cls-7{fill:#c50075;}.cls-8{fill:#fff;}</style><clipPath id="clippath"><circle class="cls-2" cx="116.87" cy="114.14" r="101.39"/></clipPath></defs><g id="Layer_1-2"><path class="cls-4" d="M96.77,237.29c1.62,12.27,9.76,23.49,20.93,28.83.78.37,1.64.72,2.47.52,1.12-.28,1.79-1.44,2.8-2,1.53-.84,3.4-.12,5.11.21,7.8,1.5,15.95-5.53,23.26-3.35.71.21,1.07,1.01.8,1.69l-1.18,2.98c2.82,1.94,6.64,1.01,9.91,0,8.27-2.54,18.93-6,24.44-12.67,3.76-4.55,3.98-10.14,9.13-13.03,2.18-1.22,4.69-1.7,7.15-2.16,6.04-1.13,12.08-2.27,18.13-3.4.54-.1,1.09-.21,1.57-.47,2.99-1.63.81-7.11,3.54-9.16.59-.44,1.35-.65,1.89-1.15.79-.72.97-1.87,1.26-2.9.85-2.93,3.09-5.42,5.92-6.57,1.27-.51,2.73-.83,3.56-1.92.44-.57.64-1.29.83-1.98,1.52-5.52,3.04-11.03,4.56-16.55.57-2.06,1.1-4.4-.03-6.21-.81-1.3-2.29-2-3.72-2.56-5.2-2.03-10.79-3.07-16.37-3.06-3.27,0-7.36,1.09-7.89,4.32l-116.99,45.69-1.09,4.89Z"/><path class="cls-5" d="M208.05,160.61s6.55,6.55,12.02,11.14,13.98,8.74,13.98,8.74l-11.8,4.59-23.81-17.91,9.61-6.55Z"/><path class="cls-5" d="M89.03,228.81c1.52-.89,3.38.93,3.51,2.7s-.68,3.46-.77,5.23c-.19,4.18,3.56,7.38,5.11,11.27.65,1.63.91,3.4,1.76,4.94,1.41,2.57,4.18,4.04,6.35,6.02,1.96,1.79,3.45,4.06,5.5,5.75s5,2.72,7.37,1.51c-1.34-3.91-4.63-6.76-7.36-9.87s-5.1-7.21-4.01-11.19c3.54,2.11,7.69,3.18,11.8,3.05-.99-1.42-1.98-2.83-2.97-4.25-1.1-1.57-2.25-3.32-2.06-5.23.2-2.02,1.92-3.61,3.81-4.33s3.97-.73,5.99-.81c13-.49,25.89-3.91,37.42-9.93.56,5.36-8.41,7.57-8.58,12.95,3.3-.89,6.6-1.78,9.9-2.67,1.5-.41,3.34-.73,4.43.38.61.62.8,1.53,1.08,2.35,1.09,3.27,3.86,5.79,6.98,7.24s6.61,1.94,10.05,2.2c-3.73-2.97-5.01-8.62-2.93-12.9,2.24.22,2.86,3.77,5.09,4.12,1.29.2,2.48-.88,2.96-2.09s.44-2.56.59-3.86c.45-4.06,2.62-7.71,4.75-11.2,2.05-3.37,4.23-6.87,7.6-8.92,7.64-4.64,17.75-.03,26.36-2.42-4.23-3.78-9.61-6.27-15.23-7.05,2.33-4.62,7.89-7.38,12.98-6.43-.01-3.23-3.17-6.08-6.38-5.76l6.23-5.46-2.81-1.46-9.28-4.35-46.39,12.31-80.09,21.4,1.23,16.79Z"/><circle class="cls-3" cx="116.87" cy="114.14" r="101.39"/><g class="cls-1"><path class="cls-7" d="M1.7,96.89c11.76-2.18,22.18-8.96,31.3-16.71,2.39-2.03,4.77-4.17,7.65-5.44,7.83-3.44,17.66.29,25.11-3.92,4.97-2.81,7.75-8.62,12.82-11.24,7.66-3.95,17.63.7,25.36-3.1,5.2-2.56,9.15-8.78,14.91-8.11,2,.23,3.78,1.32,5.71,1.9,7.72,2.34,15.88-3.57,23.82-2.18,2.49.44,4.82,1.58,7.32,1.88,6.62.81,12.48-4.26,19.02-5.55,11.81-2.32,24.71,7.73,35.35,2.1l19.91,50.87,5.39,52.21-16.58,41.85-41.44,36.88-58.84,18.23-59.67-21.13-45.17-43.1L0,121.44l1.7-24.55Z"/><path class="cls-4" d="M9.6,157.44c4.68-2.45,9.78-4.98,15-4.2,3.68.55,7.13,2.74,10.84,2.44,9.09-.75,11.52-14.65,20.28-17.19,3.57-1.03,7.48.1,11.07-.83,4.7-1.23,7.79-5.65,11.96-8.16,8.12-4.89,18.45-1.81,27.93-1.99,7.02-.14,14-2.22,19.95-5.95,7.2-4.51,13.22-11.51,21.54-13.25,10.04-2.1,21.46,3.99,30.28-1.26,3.78-2.25,6.4-6.32,10.54-7.79,2.65-.94,5.55-.67,8.35-.39,4.47.45,8.95.9,13.42,1.35,3.26.33,6.72.62,9.67-.81s4.97-5.29,3.27-8.1l16.91,90.22-34.39,58.43-67.13,36.47-70.03-15.33-52.63-40.2-6.83-63.44Z"/></g><path class="cls-5" d="M39.44,51.48c-.64,0-1.28-.22-1.81-.66-1.18-1-1.33-2.77-.33-3.95,2.3-2.71,4.76-5.34,7.32-7.8,1.12-1.07,2.89-1.04,3.96.08,1.07,1.12,1.04,2.89-.08,3.96-2.42,2.33-4.75,4.82-6.93,7.38-.55.66-1.35.99-2.14.99Z"/><path class="cls-5" d="M215.38,92.85c-1.26,0-2.41-.86-2.72-2.14-5.38-22.08-18.42-41.79-36.71-55.5-1.24-.93-1.49-2.69-.56-3.93.93-1.24,2.69-1.49,3.93-.56,19.33,14.49,33.1,35.32,38.79,58.66.37,1.5-.56,3.02-2.06,3.39-.22.05-.45.08-.67.08Z"/><path class="cls-5" d="M134.56,17.09c-.16,0-.32-.01-.49-.04-3.09-.54-6.25-.94-9.39-1.19-1.54-.12-2.7-1.47-2.58-3.01s1.47-2.7,3.01-2.58c3.32.26,6.66.68,9.92,1.26,1.52.27,2.54,1.72,2.28,3.25-.24,1.36-1.42,2.32-2.76,2.32Z"/><path class="cls-5" d="M61.4,32.06c-.91,0-1.81-.45-2.35-1.27-.85-1.3-.49-3.03.81-3.88,14.5-9.5,31.31-15.25,48.59-16.63,1.54-.12,2.9,1.03,3.02,2.57.12,1.54-1.03,2.89-2.57,3.02-16.35,1.31-32.25,6.75-45.97,15.73-.47.31-1.01.46-1.53.46Z"/><path class="cls-6" d="M88.55,50.07c-1.45,0-2.62-1.18-2.62-2.62s1.18-2.62,2.62-2.62,2.62,1.18,2.62,2.62-1.18,2.62-2.62,2.62ZM88.55,45.67c-.98,0-1.77.8-1.77,1.77s.8,1.77,1.77,1.77,1.77-.8,1.77-1.77-.8-1.77-1.77-1.77Z"/><path class="cls-6" d="M43.02,88.92c-.63,0-1.15-.51-1.15-1.15s.51-1.15,1.15-1.15,1.15.51,1.15,1.15-.51,1.15-1.15,1.15ZM43.02,86.99c-.43,0-.77.35-.77.77s.35.77.77.77.78-.35.78-.77-.35-.77-.78-.77Z"/><path class="cls-6" d="M66.53,89.33c-1.06,0-1.92-.86-1.92-1.92s.86-1.92,1.92-1.92,1.92.86,1.92,1.92-.86,1.92-1.92,1.92ZM66.53,86.42c-.54,0-.99.44-.99.99s.44.99.99.99.99-.44.99-.99-.44-.99-.99-.99Z"/><path class="cls-8" d="M76.15,74.59c-.78,0-1.41-.63-1.41-1.41s.63-1.41,1.41-1.41,1.41.63,1.41,1.41-.63,1.41-1.41,1.41ZM76.15,72.35c-.46,0-.83.37-.83.83s.37.83.83.83.83-.37.83-.83-.37-.83-.83-.83Z"/><circle class="cls-8" cx="198.75" cy="109.04" r="1.04"/><path class="cls-7" d="M96.33,30.8c-1.14,0-2.07-.93-2.07-2.07s.93-2.07,2.07-2.07,2.07.93,2.07,2.07-.93,2.07-2.07,2.07ZM96.33,27.5c-.68,0-1.23.55-1.23,1.23s.55,1.23,1.23,1.23,1.23-.55,1.23-1.23-.55-1.23-1.23-1.23Z"/><path class="cls-4" d="M67.05,61.01c-.61,0-1.11-.5-1.11-1.11s.5-1.11,1.11-1.11,1.11.5,1.11,1.11-.5,1.11-1.11,1.11ZM67.05,59.26c-.36,0-.64.29-.64.64s.29.64.64.64.64-.29.64-.64-.29-.64-.64-.64Z"/><path class="cls-8" d="M47.77,169.15c-.61,0-1.11-.5-1.11-1.11s.5-1.11,1.11-1.11,1.11.5,1.11,1.11-.5,1.11-1.11,1.11ZM47.77,167.4c-.36,0-.64.29-.64.64s.29.64.64.64.64-.29.64-.64-.29-.64-.64-.64Z"/><path class="cls-8" d="M29.62,138.5c-.61,0-1.11-.5-1.11-1.11s.5-1.11,1.11-1.11,1.11.5,1.11,1.11-.5,1.11-1.11,1.11ZM29.62,136.74c-.36,0-.64.29-.64.64s.29.64.64.64.64-.29.64-.64-.29-.64-.64-.64Z"/><circle class="cls-7" cx="166.1" cy="37.39" r="1.04"/><circle class="cls-7" cx="67.68" cy="46.52" r="1.33"/><circle class="cls-7" cx="141.78" cy="26.28" r=".89"/><path class="cls-6" d="M204.11,126.6c-1.36,0-2.46-1.1-2.46-2.46s1.1-2.46,2.46-2.46,2.46,1.1,2.46,2.46-1.1,2.46-2.46,2.46ZM204.11,123c-.63,0-1.14.51-1.14,1.14s.51,1.14,1.14,1.14,1.14-.51,1.14-1.14-.51-1.14-1.14-1.14Z"/><circle class="cls-8" cx="30.05" cy="105.57" r="1.02"/><circle class="cls-8" cx="162.33" cy="59.5" r=".78"/><circle class="cls-8" cx="185.95" cy="109.3" r=".78"/><circle class="cls-8" cx="184.58" cy="84.51" r=".78"/><circle class="cls-4" cx="105.16" cy="42.67" r=".72"/><circle class="cls-6" cx="76.37" cy="170.97" r=".86"/><circle class="cls-4" cx="79.08" cy="38.58" r=".84"/><circle class="cls-4" cx="118.39" cy="26.96" r="1.21"/><path class="cls-4" d="M152.06,44.07c-1.03,0-1.86-.84-1.86-1.87s.84-1.87,1.86-1.87,1.87.84,1.87,1.87-.84,1.87-1.87,1.87ZM152.06,41.66c-.3,0-.55.25-.55.55s.25.55.55.55.55-.25.55-.55-.25-.55-.55-.55Z"/><path class="cls-8" d="M86.96,182.82c-.92,0-1.67-.75-1.67-1.67s.75-1.67,1.67-1.67,1.67.75,1.67,1.67-.75,1.67-1.67,1.67ZM86.96,180.41c-.41,0-.74.33-.74.74s.33.74.74.74.74-.33.74-.74-.33-.74-.74-.74Z"/><path class="cls-8" d="M188.78,73.3c-.82,0-1.48-.67-1.48-1.48s.67-1.48,1.48-1.48,1.48.67,1.48,1.48-.67,1.48-1.48,1.48ZM188.78,71.01c-.44,0-.81.36-.81.81s.36.81.81.81.81-.36.81-.81-.36-.81-.81-.81Z"/><path class="cls-8" d="M52.87,62.3c0-.4-.89-.73-2.11-.84-.11-1.22-.44-2.11-.84-2.11s-.73.89-.84,2.11c-1.22.11-2.11.44-2.11.84s.89.73,2.11.84c.11,1.22.44,2.11.84,2.11s.73-.89.84-2.11c1.22-.11,2.11-.44,2.11-.84Z"/><path class="cls-8" d="M210.7,111.44c0-.19-.42-.35-1-.4-.05-.58-.21-1-.4-1s-.35.42-.4,1c-.58.05-1,.21-1,.4s.42.35,1,.4c.05.58.21,1,.4,1s.35-.42.4-1c.58-.05,1-.21,1-.4Z"/><path class="cls-6" d="M184.12,55.57c0-.33-.74-.61-1.75-.7-.09-1.01-.37-1.75-.7-1.75s-.61.74-.7,1.75c-1.01.09-1.75.37-1.75.7s.74.61,1.75.7c.09,1.01.37,1.75.7,1.75s.61-.74.7-1.75c1.01-.09,1.75-.37,1.75-.7Z"/><path class="cls-8" d="M64.78,178.17c0-.18-.65-.33-1.57-.39.61-.69.96-1.26.83-1.39-.13-.13-.69.23-1.39.83-.06-.92-.22-1.57-.39-1.57s-.33.65-.39,1.57c-.69-.61-1.26-.96-1.39-.83-.13.13.23.69.83,1.39-.92.06-1.57.22-1.57.39s.65.33,1.57.39c-.61.69-.96,1.26-.83,1.39s.69-.23,1.39-.83c.06.92.22,1.57.39,1.57s.33-.65.39-1.57c.69.61,1.26.96,1.39.83.13-.13-.23-.69-.83-1.39.92-.06,1.57-.22,1.57-.39Z"/><path class="cls-8" d="M204.15,84.89c0-.18-.65-.33-1.57-.39.61-.69.96-1.26.83-1.39-.13-.13-.69.23-1.39.83-.06-.92-.22-1.57-.39-1.57s-.33.65-.39,1.57c-.69-.61-1.26-.96-1.39-.83-.13.13.23.69.83,1.39-.92.06-1.57.22-1.57.39s.65.33,1.57.39c-.61.69-.96,1.26-.83,1.39s.69-.23,1.39-.83c.06.92.22,1.57.39,1.57s.33-.65.39-1.57c.69.61,1.26.96,1.39.83.13-.13-.23-.69-.83-1.39.92-.06,1.57-.22,1.57-.39Z"/><path class="cls-6" d="M134.46,41.94c0-.18-.64-.33-1.55-.39.6-.68.94-1.24.82-1.37-.12-.12-.68.22-1.37.82-.06-.91-.21-1.55-.39-1.55s-.33.64-.39,1.55c-.68-.6-1.24-.94-1.37-.82-.12.12.22.68.82,1.37-.91.06-1.55.21-1.55.39s.64.33,1.55.39c-.6.68-.94,1.24-.82,1.37s.68-.22,1.37-.82c.06.91.21,1.55.39,1.55s.33-.64.39-1.55c.68.6,1.24.94,1.37.82.12-.12-.22-.68-.82-1.37.91-.06,1.55-.21,1.55-.39Z"/><path class="cls-6" d="M113.62,60.24c0-.18-.64-.33-1.55-.39.6-.68.94-1.24.82-1.37-.12-.12-.68.22-1.37.82-.06-.91-.21-1.55-.39-1.55s-.33.64-.39,1.55c-.68-.6-1.24-.94-1.37-.82-.12.12.22.68.82,1.37-.91.06-1.55.21-1.55.39s.64.33,1.55.39c-.6.68-.94,1.24-.82,1.37s.68-.22,1.37-.82c.06.91.21,1.55.39,1.55s.33-.64.39-1.55c.68.6,1.24.94,1.37.82.12-.12-.22-.68-.82-1.37.91-.06,1.55-.21,1.55-.39Z"/><path class="cls-4" d="M103.44,177l-7.29-20.96-27.51,1.42-17.95-3.18-6.51-2.5-6.57-10.32-1.14-21.64,9.79-6.61,16.86-9.57,12.47-5.93.74-9.79,9.7-9.71,29.48-6.46,13.21-1.14,15.72,1.82,14.58,1.82,7.97,7.29,6.89,8.23,1.08,17.96,7.06,31.21s-7.29,10.48-8.88,12.3-29.16,18.45-29.84,18.45-31.43,9.57-32.57,9.57-7.29-2.28-7.29-2.28Z"/><path class="cls-5" d="M93.7,97.75c-.15,0-.31-.02-.46-.06-.9-.25-1.42-1.18-1.17-2.08.05-.16,1.14-4.01,4.28-5.73,1.69-.93,3.59-1.08,5.65-.46,6.42,1.95,8.24,5.16,8.43,5.52.43.83.1,1.85-.73,2.28-.83.43-1.85.1-2.28-.73h0s-1.39-2.32-6.4-3.84c-1.17-.35-2.16-.3-3.03.18-1.89,1.03-2.66,3.66-2.67,3.69-.21.74-.89,1.23-1.63,1.23Z"/><path class="cls-5" d="M90.87,99.85l-.4,6.28s5.8-.71,8.55.35,5.15,3.23,5.15,3.23l3.45-3.77s-.81-4.81-9.9-6.69c-4.71-.98-6.85.59-6.85.59Z"/><polygon class="cls-5" points="89.77 99.92 92.34 104.02 92.27 105.7 89.64 107.09 87.1 105.79 87.47 99.44 89.77 99.92"/><path class="cls-5" d="M73.03,153.89s7.92-2.65,10.95-5.96c.44-.48.94-.88,1.54-1.13,2.43-1.01,8.97-4.32,12.03-11.63,0,0,.7-1.89,2.1-1.24s1.51,4.1-.45,6.99-12.59,13.01-12.59,13.01l-13.59-.04Z"/><path class="cls-5" d="M133.03,95.06c.64-.22,1.34-.46,1.88-.65.61-.21,1.05-.74,1.15-1.37l.85-5.05c.1-.58-.1-1.16-.52-1.57l-.53-.5c-.5-.48-1.24-.62-1.89-.36l-1.31.54c-.43.18-.78.52-.96.95l-1.46,3.45c-.15.36-.18.75-.08,1.13l.58,2.23c.26.99,1.31,1.56,2.28,1.23Z"/><path class="cls-5" d="M94.04,132.17l.68.86c.21.26.49.46.81.56l4.33,1.38c.18.06.38.09.57.08l.52-.02c.64-.02,1.24.32,1.55.88l.33.6c.3.54.87.88,1.49.88h0c.8,0,1.49-.56,1.67-1.34l.08-.37c.1-.47,0-.97-.28-1.36l-1.46-2.02c-.18-.25-.42-.44-.7-.56l-5.73-2.52c-.18-.08-.37-.13-.56-.14l-1.76-.13c-.85-.06-1.62.51-1.79,1.35l-.1.46c-.1.5.02,1.02.34,1.41Z"/><path class="cls-8" d="M49.68,121.06c.51-.26,7.61-3.78,8.11-4.04s7.5-5.71,8.17-5.95,3.72-1.82,3.87-3.24-1.66-5.13-1.66-5.13l-7.76,3.76-16.82,10.58.03,2.56,6.06,1.47Z"/><path class="cls-8" d="M78.31,93.38s3.59,1.3,4.9.25,2.46-1.97,2.67-2.54,3.12-5.18,3.12-5.18c0,0,3.08.49,3.51-.65s.26-5.05.26-5.05l-8.5,1.15-5.55,6.85-.43,5.18Z"/><path class="cls-8" d="M93.99,80.04s-.44,3.99.41,4.38,5.28.89,6.64-.6,1.76-5.04,1.76-5.04l-8.81,1.26Z"/><path class="cls-8" d="M108.66,77.19s.61,3.95,1.46,4.35,2.44.87,3.4.38,1.46-1.03,1.54-1.77-1-4.45-1-4.45l-5.4,1.49Z"/><path class="cls-8" d="M136.77,101.26s4.48-.39,4.48,2.8,2.19,16.91,2.52,18.72,2.02,4.13,3.35,4.98,4.18,5.43,1.26,7.77l-7.3-4.54-4.69-12.05-1.06-15.9,1.44-1.79Z"/><path class="cls-8" d="M40.14,138.7s3.17-1.9,4.48-1.05,2.5,1.55,3.97,4.81,2.04,5.72,3.17,5.7,6.49-1.39,7.71,4.1l-9.91,1.71-5.75-4.02-2.93-6.52-.74-4.73Z"/><circle class="cls-8" cx="63.41" cy="138.76" r="1.53"/><circle class="cls-8" cx="68.64" cy="133.43" r="1.53"/><circle class="cls-8" cx="76.37" cy="136.66" r="1.53"/><circle class="cls-8" cx="70.28" cy="140.4" r="1.53"/><path class="cls-5" d="M195.85,149.63l-4.18-11.04c-.39-1.02-1.34-1.71-2.43-1.76l-1.36-.06c-1.04-.05-1.92-.76-2.2-1.76l-7.03-25.96c-.34-1.26-.4-2.58-.17-3.86l1.23-6.93c.13-.72.14-1.45.04-2.17l-.81-5.79c-.2-1.46-.92-2.81-2.02-3.8l-16.06-14.35c-.84-.75-1.9-1.19-3.02-1.26l-6.87-.41c-.55-.03-1.1-.14-1.62-.3l-16.16-5.21c-1.63-.53-3.37-.61-5.04-.25-5.17,1.12-16.61,3.61-19.45,4.29-.44.11-.86.27-1.27.48l-2.14,1.14c-.38.2-.78.35-1.2.45l-19.54,4.53c-2.05.48-3.84,1.72-5.01,3.47l-6.51,9.79c-.81,1.21-.88,2.76-.19,4.04l.42.77c.48.9.09,2.02-.86,2.41l-13.59,5.65c-.53.22-1.02.5-1.48.84l-14.13,10.37c-.58.43-1.21.77-1.88,1.04l-7.39,2.92-1.97,1.26c-1.53.98-2.17,2.88-1.56,4.58l2.33,6.47,1.7,12.58c.06.48.2.94.41,1.37l3.57,7.37c.41.84,1.14,1.48,2.03,1.78l1.55.51c.56.18,1.06.51,1.46.94l2.82,3.05c.62.67,1.45,1.1,2.35,1.23l9.73,1.37s9.06,1.01,9.56.9c.43-.09,14.17,0,18.31.03.69,0,1.29.47,1.47,1.14l.17.65c.21.8.76,1.47,1.49,1.85l2.58,1.32c.49.25.9.64,1.17,1.13l.29.53c.38.68.21,1.54-.4,2.02l-.05.04c-.64.51-.93,1.35-.74,2.15l.53,2.26c.17.73.6,1.39,1.2,1.84l1.74,1.33c.7.53,1.11,1.35,1.12,2.23l.19,11.41s37.94,1.94,38.43,1.99c.49.05,68.94-27.17,68.94-27.17l-5.93-9.34c-1.04-2.22-2.23-5.28-2.56-6.15ZM166.12,149.69l-8.59,4.69-8.1,3.82-10.88,5.79c-.69.37-1.44.59-2.22.66l-2.39.21c-.6.05-1.2-.03-1.77-.24l-3.92-1.46c-1.3-.48-2.74-.43-4,.14l-15.37,6.95c-1.41.64-3.08.02-3.73-1.38l-3.46-7.41c-.68-1.46.15-3.17,1.71-3.54l4.55-1.09,4.96-2.1,4.86-3.89,4.93-4.64c.45-.42.84-.9,1.16-1.42l.91-1.47c.45-.74.57-1.67.2-2.45-.63-1.33-2.09-1.54-2.99-.79-1.11.92-2.88,2.46-3.36,3.2-.48.73-2.53,2.73-3.85,3.99-.74.7-1.64,1.19-2.62,1.45l-6.91,1.77c-.28.07-.57.12-.86.13l-18.87,1.07s-9.78.39-10.98.55c-.82.11-2.62-.71-3.69-1.25-.56-.28-1.2-.35-1.81-.19l-5.8,1.47c-.35.09-.7.13-1.06.14l-7.97.11c-.62,0-1.24-.13-1.8-.41l-3.38-1.69c-.7-.35-1.26-.94-1.57-1.66l-2.34-5.4-3.72-8.97.91-.83c.88-.8,1.33-1.97,1.23-3.15l-.22-2.59,2.04.23s.52,3.3,4.4,2.85c3.89-.45,2.85-7.06,2.85-7.06,0,0,.03-4.28-5.64-4.91l11.64-6.53s10.47-6.51,12.02-7.22c1.26-.58,7.13-4.5,9.34-5.98.52-.35.81-.95.77-1.58l-.43-6.5c-.03-.52.13-1.04.45-1.46l4.47-5.72c.35-.44.85-.73,1.41-.81l17.08-2.23c.22-.03.43-.07.64-.12l14.81-3.68c.84-.21,1.71-.23,2.55-.08l9.6,1.77c.82.15,1.67.05,2.43-.29l5.27-2.37c.26-.12.55-.18.84-.19l13.54-.27c1.1-.02,2.16.35,3,1.06l11.64,9.79c1.05.88,1.71,2.13,1.84,3.49l1.32,13.19c.09.92-.04,1.85-.39,2.71l-5.95,14.6c-.28.68-.69,1.3-1.22,1.81l-10.28,10.05c-.53.52-1.29.73-2.01.55l-4.82-1.18c-.41-.1-.78-.32-1.07-.63l-5.16-5.61c-.3-.32-.49-.73-.55-1.17l-3.43-25.45c-.18-1.36-1.58-2.2-2.86-1.72h0c-.73.27-1.26.92-1.38,1.69l-1.96,12.78c-.02.13-.03.26-.02.39l.44,15.23c.07,2.28.93,4.47,2.43,6.19l5.03,5.73c1.02,1.16,2.3,2.05,3.74,2.6l1.84.7c2.28.87,4.84.66,6.95-.57l10-5.84c.16-.09.3-.2.43-.33l6.69-6.62c.06-.06.11-.11.16-.17l5.4-6.68,1.8,16.66c.15,1.37-.33,2.73-1.31,3.7l-6.07,6.02c-.45.45-.96.83-1.51,1.13Z"/><path class="cls-7" d="M112.97,176.45l.97,3.15s21.63.3,35.83-4.99c14.2-5.29,27.91-13.4,33.28-20.07l-1.96-3.78s-14.36,15.04-30.75,14.01c0,0-4.58,10.32-12.99,9.91s-24.37,1.77-24.37,1.77Z"/><path class="cls-5" d="M209.88,173.28s11.69,1.95,13.4,2.51,13.11,3.62,13.11,3.62l4.56,1.39,4.56,8.64s-.29,1.95-3.71.84-1.43-1.67-7.41-3.07c-5.99-1.39-5.99-1.95-9.98-2.23s-13.97-.84-13.97-.84l-3.71-.84,3.14-10.04Z"/><path class="cls-5" d="M66.33,202.03c5.7,2.85,12.47,2.41,18.73,1.19s12.44-3.17,18.82-3.14c-5.61,2.48-11.23,4.95-16.84,7.43-.89.39-1.8.8-2.54,1.44-1.07.92-1.68,2.25-2.26,3.53-.39.86-.78,1.71-1.17,2.57-.25.54-.48,1.21-.13,1.69.19.26.51.39.81.49,1.86.62,3.85.7,5.81.71,6.15.03,12.28-.53,18.4-1.1-3.25,3.18-7.7,4.78-12.03,6.18-4.14,1.35-8.31,2.61-12.5,3.78l-3.51-12.01-9.2,2.43-3.95-12.05,1.57-3.15Z"/><path class="cls-8" d="M28.28,82.78c.54,1.48,2.42,1.06,3.54.07,1.21-1.07,2.02-2.78,2.59-4.51s.97-3.52,1.62-5.21c1.23-3.19,3.27-5.74,5.27-8.16,2.12-2.56,3.81-5.02,5.24-8.29.26-.59.52-1.29.35-1.85-.14-.43-.49-.63-.83-.77-.84-.35-1.81-.53-2.71-.01-.44.25-.83.65-1.18,1.09-1.11,1.37-1.69,3.11-2.58,4.69-.98,1.73-2.05,3.39-3.02,5.14-1.28,2.33-2.56,4.66-3.85,6.99-1.39,2.53-3.18,4.9-4.17,7.72-.25.73-.45,1.5-.43,2.25.01.34.06.62.15.86Z"/><path class="cls-5" d="M116.87,218.33c-57.45,0-104.2-46.74-104.2-104.19,0-20.23,5.8-39.85,16.78-56.73.84-1.3,2.58-1.67,3.88-.82,1.3.84,1.67,2.58.82,3.88-10.39,15.97-15.88,34.53-15.88,53.67,0,54.36,44.23,98.59,98.59,98.59s98.59-44.23,98.59-98.59c0-7.92-.94-15.8-2.8-23.43-.37-1.5.56-3.02,2.06-3.39,1.51-.37,3.02.56,3.39,2.06,1.96,8.06,2.96,16.38,2.96,24.75,0,57.45-46.74,104.19-104.2,104.19Z"/><path class="cls-8" d="M57.41,45.07c2.44-2.6,5.74-4.25,8.36-6.68.24-.22.49-.53.37-.83-.1-.25-.41-.34-.68-.38-2.91-.44-5.88.79-8.16,2.65-.94.77-1.82,1.63-2.67,2.5-.59.61-1.13,1.27-1.71,1.89-.55.59-1.2,1.05-1.65,1.73-.41.63-.65,1.41-.47,2.14.07.28.21.56.45.72.39.27.93.17,1.38,0,1.92-.72,3.41-2.3,4.78-3.76Z"/><path class="cls-8" d="M69.11,32.95c.07.19.27.29.46.37.94.4,1.95.81,2.96.64.72-.13,1.36-.55,1.97-.96,2.36-1.6,4.73-3.19,7.09-4.79.48-.33,1.03-.88.76-1.4-2.24-.38-4.43.76-6.42,1.87-.71.39-7.21,3.21-6.81,4.28Z"/><rect class="cls-4" x="63.22" y="182.11" width="148.06" height="16.72" transform="translate(-44.1 41.38) rotate(-14.8)"/><rect class="cls-5" x="64.55" y="192.34" width="148.06" height="6.32" transform="translate(-45.34 41.88) rotate(-14.8)"/><path class="cls-5" d="M67.81,220.1c-1.17,0-2.23-.78-2.55-1.96l-1.61-6.11c-.18-.68-.08-1.4.27-2s.93-1.04,1.61-1.22l143.15-37.82c1.4-.37,2.85.47,3.22,1.88l1.61,6.11c.18.68.08,1.4-.27,2s-.93,1.04-1.61,1.22l-143.15,37.82c-.23.06-.45.09-.67.09ZM69.42,213.23l.27,1.01,138.05-36.47-.27-1.01-138.05,36.47Z"/><rect class="cls-4" x="76.7" y="198.28" width="129.65" height="16.72" transform="translate(-48.09 43) rotate(-14.8)"/><path class="cls-5" d="M80.98,233.75c-.43,0-.86-.11-1.24-.33-.57-.33-.98-.87-1.14-1.5l-4.27-16.17c-.35-1.32.44-2.67,1.75-3.01l125.35-33.12c.63-.17,1.31-.08,1.87.25.57.33.98.87,1.14,1.5l4.27,16.17c.35,1.32-.44,2.67-1.75,3.01l-125.35,33.12c-.21.05-.42.08-.63.08ZM79.73,216.87l3.01,11.4,120.58-31.86-3.01-11.4-120.58,31.86Z"/><rect class="cls-5" x="78.13" y="209.33" width="129.65" height="5.49" transform="translate(-49.43 43.55) rotate(-14.8)"/><path class="cls-5" d="M80.98,233.75c-.43,0-.86-.11-1.24-.33-.57-.33-.98-.87-1.14-1.5l-1.4-5.3c-.35-1.32.44-2.67,1.75-3.01l125.35-33.12c.63-.17,1.31-.08,1.87.25.57.33.98.87,1.14,1.5l1.4,5.3c.35,1.32-.44,2.67-1.75,3.01l-125.35,33.12c-.21.05-.42.08-.63.08ZM82.6,227.73l.14.53,120.58-31.86-.14-.53-120.58,31.86Z"/><path class="cls-6" d="M75.64,200.65l58.99-15.73s.37,3.67-28.72,11.89c-11.53,3.26-30.27,3.84-30.27,3.84Z"/><path class="cls-6" d="M84.63,215.47l58.99-15.73s.37,3.67-28.72,11.89c-11.53,3.26-30.27,3.84-30.27,3.84Z"/><path class="cls-6" d="M114.9,211.63s36.42-6.51,44.73-16.24c0,0-20.26,2.84-21.07,3.24s-23.7,7.09-23.7,7.09l.04,5.91Z"/><path class="cls-6" d="M105.91,196.8s65.89-14.99,80.13-25.37l-7.86.89-51.75,13.64-20.76,5.93.25,4.91Z"/><path class="cls-5" d="M67.81,220.1c-.46,0-.92-.12-1.33-.36-.6-.35-1.04-.93-1.22-1.61l-4.27-16.17c-.37-1.41.47-2.85,1.88-3.22l143.15-37.82c.68-.18,1.4-.08,2,.27.6.35,1.04.93,1.22,1.61l4.27,16.17c.37,1.41-.47,2.85-1.88,3.22l-143.15,37.82c-.22.06-.45.09-.67.09ZM66.76,203.17l2.92,11.07,138.05-36.47-2.92-11.07-138.05,36.47Z"/><path class="cls-5" d="M94.42,188.6c4.59-1.49,6.28-.47,10.46-2.89.56,1.43-1.07,4.34-2.34,5.22s-3.04,1.88-4.56,2.12c-11.65,1.87-23.29,3.17-33.82,8.5.77,3.18,1.54,6.37,2.32,9.55.48,1.96,1.27,4.26,3.23,4.74,2.02-.71,4.05-1.43,6.07-2.14,1.31,5.16,3.03,10.2,5.16,15.08.1.22.21.46.42.59.2.12.45.11.68.09,4.86-.29,9.72-.59,14.58-.88-.07,1.44.1,2.89.52,4.27-6.06-1.73-12.44,2.54-18.66,1.54-1.56-4.84-3.12-9.67-4.68-14.51-2.65.95-5.51,1.32-8.32,1.07-2.17-4.61-9.23-20.33-2.67-22.62,8.7-3.04,22.71-6.82,31.61-9.72Z"/><path class="cls-5" d="M25.8,61.08c-5.51,10.25-11.06,20.59-14.29,31.77-3.23,11.18-4.01,23.4.02,34.32,1.05,2.85,2.42,5.59,3.18,8.53.76,2.94.89,6.01,1.39,9,1.59,9.38,6.8,17.69,11.9,25.73,4.45,7.01,8.96,14.09,14.84,19.96s13.34,10.51,21.59,11.51c1.99-1.5,1.53-4.79-.15-6.63s-4.14-2.7-6.36-3.83c-3.93-2.01-7.27-5-10.34-8.16-13.84-14.2-23.38-32.55-26.97-52.05s-1.19-40.08,6.86-58.19c1.42-3.2,4.26-7.93,3.64-11.61s-3.5-3.72-5.31-.35Z"/><path class="cls-5" d="M38.23,51.75c5.09-1.64,8.36-6.45,11.25-10.95.2-.31.41-.65.38-1.02-.02-.24-.14-.46-.28-.66-1.14-1.59-3.52-1.79-5.34-1.06s-3.23,2.18-4.71,3.46c-1.36,1.18-2.85,2.27-3.79,3.8-1.26,2.03-1.26,7.63,2.49,6.42Z"/><path class="cls-5" d="M61.23,32.33c12.27-7.58,25.89-12.72,39.95-15.08,2.89-.49,6.04-.45,8.79-1.51.72-.28,1.68-.72,2.14-1.36,1.04-1.45-.36-4.02-1.89-4.85s-3.37-.65-5.08-.41c-11.47,1.63-22.69,5.09-33.18,10.2-4.18,2.03-9.71,4.21-13.27,7.31s-2.93,9.08,2.53,5.7Z"/><path class="cls-5" d="M120.55,10.19c-.5.42-.71,1.08-.86,1.72-.1.43-.19.88-.12,1.32.18,1.16,1.34,1.92,2.45,2.33,1.66.62,3.45.82,5.21,1.02,2.89.32,5.77.65,8.66.97.28.03.59.06.82-.09.27-.17.37-.51.44-.82.29-1.28.49-2.72-.25-3.8-.77-1.13-2.27-1.47-3.63-1.72-2.43-.45-4.87-.9-7.3-1.34-.87-.16-1.66-.3-2.54-.22-.94.08-2.12,0-2.88.64Z"/><path class="cls-5" d="M174.95,29.96c-1.36,1.07-1.53,2.52-.92,4.22s3.41,3.3,4.65,4.53c5.71,5.66,12.33,11.45,16.93,18.21,6.8,9.99,11.2,17.03,14.48,28.96.76,2.75,2.56,11.54,3.04,14.36.69,4.08.96,10.09,1.05,14.24.19,8.53-1.28,15.76-3.15,24.29-1.96,8.96-6.11,16.52-10.04,24.64,1.08.81,4.52,1.17,5.6,1.98,2.06-2.67,3.29-5.68,4.92-8.68,9.02-16.67,9.75-33.51,8.74-52.85-.24-4.53-1.47-10.88-2.8-15.18-1.39-4.48-2.94-11.03-5.02-15.18-4.82-9.6-8.65-17.74-15.06-26.15-3.21-4.22-7.78-9.47-11.79-12.73-2.36-1.92-8.36-6.44-10.62-4.67Z"/><path class="cls-5" d="M72.96,195.1c-.66,1.44-2.1,2.39-3.6,2.89s-3.1.61-4.67.84c-.26.04-.52.08-.78.03-.24-.05-.46-.17-.67-.29-1.27-.71-5.53-2.22-5.96-3.62-.52-1.69,1.5-2.25,2.8-2.14,1.99.17,3.84,1.67,5.8,2.16.92.23,6.58,1.25,7.09.13Z"/><path class="cls-5" d="M65.27,203.45s11.8-2.53,13.32-2.87,18.88-4.89,22.42-5.9,25.12-6.41,27.31-7.25,15-4.72,15-4.72c0,0,18.21-4.05,20.74-4.72s21.98-6.56,21.98-6.56c0,0,7.86-1.02,8.71-1.36s6.07-1.69,6.07-1.69l5.56-1.01-2.04-2.26-49.89,10.69-90.01,26.1.83,1.55Z"/><polygon class="cls-5" points="67.63 201.09 69.66 208.85 66.48 211.1 64.76 205.18 63.54 201.3 67.63 201.09"/><path class="cls-5" d="M67.13,207.84l8.43-2.19,11.8-3.54s10.45-3.03,14.33-3.88,18.04-3.88,18.54-4.05,31.19-8.43,32.03-8.77,19.72-5.06,19.72-5.06c0,0,12.48-3.54,14.67-4.05s10.12-2.87,10.12-2.87l10.62-2.19-3.03,12.98s-6.24,1.85-6.74,2.02-16.35,4.21-17.2,4.21-20.79,4.92-20.79,4.92c0,0-10.23,3.84-11.24,4.01s-22.93,6.07-23.77,6.24-14.33,3.2-17.03,4.05-16.86,4.72-16.86,4.72l-12.48,3.88-4.55-2.19-7.59-3.2,1.01-5.06Z"/><path class="cls-5" d="M79.94,223.01s8.6-2.36,9.78-2.53,12.14-3.71,12.98-3.88,12.14-3.03,12.81-3.03,19.72-4.72,19.72-4.72l21.07-6.41s18.21-4.72,18.88-4.89,9.61-3.03,12.14-3.37,10.45-2.53,11.63-2.87,6.41-.67,6.41-.67c0,0,.84,6.57-2.02,6.41s-75.86,20.4-76.88,20.9-44.42,11.5-44.42,11.5l-2.11-6.44Z"/><path class="cls-4" d="M450.64,150.65l12.31-12.28c1.98-1.94,2.12-5.09.31-7.2-4.21-4.9-12.32-10.74-26.99-10.74-8.3,0-15.52,2.53-20.88,7.31-.65.58-10.34,10.3-10.34,10.3-3.78-9.28-11.55-17.17-27.06-17.17-2.72,0-5.29.39-7.58,1v-11.06c3.31,1.32,7,2.05,10.95,2.05,10.77,0,17.5-4.45,22.2-9.03.25.34.52.65.85.92,6.33,5.3,14.77,8.11,24.42,8.11,9.1,0,16.62-2.93,21.35-7.83h0s10.28-10.27,10.28-10.27h0c3.63-3.62,5.7-8.36,5.7-13.81,0-7.88-3.99-12.23-9.02-14.73l5.54-6.07c.97-1.07,1.47-2.48,1.36-3.92-.1-1.44-.79-2.77-1.91-3.69-5.36-4.41-13.54-6.94-22.44-6.94-7.33,0-15,2.29-19.84,7.12l-5.57,5.59c-4.71-7.77-12.87-12.71-22.54-12.71-8.07,0-15.23,3.37-20.25,8.84l-4.33,4.31v-7.07c0-2.91-2.36-5.27-5.27-5.27h-13.51c-2.9,0-5.25,2.35-5.26,5.25v-.14c0-2.18-1.34-4.13-3.38-4.92-1.67-.64-3.84-1-6.1-1-2.94,0-5.91.88-8.72,2.54-.96-1.06-2.36-1.73-3.9-1.73h-13.19c-1.34,0-2.55.51-3.48,1.34l-7.64,7.62c-5.1-6.24-13.07-10.12-22.37-10.12-7.61,0-14.52,3.02-19.61,7.92h0s-11.25,11.24-11.25,11.24h0c-4.94,5.11-8,12.06-8,19.71,0,8.07,3.39,15.35,8.82,20.51l-7.23,7.23c-.98.96-1.6,2.29-1.6,3.77v69.77c0,13.33,8.57,21.95,21.84,21.95,4.43,0,7.44-.93,10.02-1.94.63-.24,1.18-.61,1.65-1.05,0,0,.3-.28.31-.29l4.02-4.04c4.64,4.84,11.42,7.32,18.15,7.32,7.22,0,12.32-2.09,15.88-4.69,3.17,2.92,7.37,4.47,12.3,4.47,4.4,0,8.08-.96,11.24-2.94.35-.22.67-.48.96-.77l1.9-1.9c.49.59,1.12,1.08,1.85,1.42,6.94,3.18,14.24,4.54,24.4,4.54s19.66-3.51,26.21-9.68h0s6.62-6.63,6.62-6.63c-.51,1.74-.11,3.68,1.2,5.08,2.48,2.64,11.95,11.24,29.76,11.24,10.57,0,18.22-3.34,23.21-8.2h0c.1-.06,10.11-10.14,10.11-10.14,5.16-4.79,7.62-11.17,7.62-17.31,0-11.63-6.88-17.53-14.12-21.16ZM274.41,167.37c-.29.27-.54.57-.81.86v-13.63l8.17,6.03c-.55.83-1.03,1.71-1.47,2.61-2.23,1.16-4.21,2.53-5.89,4.13ZM332.55,115.62v14c-4.94-6.1-13.4-9.18-25.33-9.18s-19.66,5.49-23.76,9.89c-.02.02-.04.05-.06.07h0l-.04.04-9.76,9.72h0s0,0,0,0h0v-27.76c.12,0,.25.03.37.03h12.9c1.36,0,2.59-.53,3.52-1.38l2.12-2.09c.82,1.83,2.66,3.11,4.79,3.11h13.51c1.29,0,2.46-.48,3.38-1.25l11.03-11c.86-.94,1.4-2.18,1.4-3.55v-16.2c1.43.19,2.88-.21,4.01-1.12,1.23-.99,1.94-2.48,1.95-4.06v31.92c0,1.79.9,3.38,2.27,4.33l-.76.76h0c-.96.95-1.55,2.27-1.55,3.73ZM405.57,173.86c.61.46,1.23.9,1.87,1.31l-.49.57c-1.12.24-2.14.83-2.89,1.7l-.13.15c.61-1.2,1.16-2.44,1.64-3.72Z"/><path class="cls-4" d="M423.81,210.08c-18.87,0-29.02-9.24-31.68-12.07-.4-.43-.75-.89-1.04-1.39l-3,3.01c-7.28,6.86-16.97,10.45-28.07,10.45s-18.19-1.43-25.5-4.78c-.19-.09-.38-.18-.56-.28l-.23.23c-.43.44-.91.83-1.42,1.14-3.6,2.25-7.73,3.34-12.64,3.34s-9.02-1.32-12.45-3.83c-4.39,2.69-9.67,4.05-15.73,4.05-6.81,0-13.25-2.27-18.07-6.29l-2.22,2.24s0,0,0,0c0,0-.39.36-.39.36-.76.7-1.59,1.23-2.49,1.58-2.82,1.1-6.11,2.11-10.98,2.11-14.64,0-24.47-9.88-24.47-24.58v-69.77c0-2.15.85-4.16,2.4-5.66l5.37-5.37c-5.03-5.66-7.77-12.84-7.77-20.48s3.06-15.6,8.62-21.4c.05-.06.1-.11.15-.17l11.25-11.24c5.84-5.61,13.45-8.69,21.47-8.69,8.72,0,16.75,3.23,22.47,8.94l5.68-5.67s.08-.07.11-.11c1.46-1.29,3.31-2,5.22-2h13.19c1.5,0,2.96.43,4.2,1.21,2.75-1.34,5.58-2.02,8.42-2.02,2.57,0,5.08.42,7.04,1.17.95.36,1.8.91,2.52,1.58,1.39-1.21,3.2-1.94,5.18-1.94h13.51c4.36,0,7.9,3.54,7.9,7.9v.72c5.71-6.08,13.49-9.43,21.94-9.43,9.11,0,17.45,4.15,22.92,11.24l3.33-3.34c4.96-4.95,13.07-7.9,21.71-7.9,9.5,0,18.29,2.75,24.11,7.55,1.66,1.37,2.7,3.39,2.86,5.54.15,2.15-.59,4.29-2.04,5.89l-3.36,3.68c5,3.52,7.53,8.67,7.53,15.34,0,5.98-2.2,11.36-6.38,15.57-.03.03-.06.06-.09.09l-10.28,10.27s-.07.07-.11.1c-5.38,5.48-13.58,8.49-23.11,8.49s-18.59-2.78-25.3-8.06c-6.32,5.42-13.6,8.06-22.17,8.06-2.87,0-5.66-.35-8.32-1.05v4.18c1.65-.26,3.3-.39,4.95-.39,12.86,0,22.4,5.27,27.84,15.29,3.01-3.02,7.32-7.33,7.8-7.76,5.85-5.22,13.68-7.98,22.63-7.98,15.67,0,24.41,6.34,28.98,11.65,2.71,3.15,2.51,7.89-.46,10.8l-9.82,9.79c8.35,5.16,12.42,12.31,12.42,21.76,0,7.23-3.08,14.25-8.46,19.24-7.44,7.49-9.42,9.48-10.07,10.09h0c-6,5.85-14.66,8.95-25.05,8.95ZM392.85,188.5c.46,0,.92.12,1.34.37,1.04.61,1.52,1.85,1.19,3-.27.91-.04,1.86.59,2.54,2.29,2.44,11.09,10.41,27.84,10.41,8.98,0,16.37-2.58,21.37-7.45.04-.04.09-.08.13-.12.81-.8,6.3-6.31,9.95-9.99,4.38-4.07,6.85-9.68,6.85-15.46,0-8.5-4.03-14.47-12.67-18.8-.76-.38-1.29-1.1-1.42-1.94s.14-1.69.74-2.28l12.31-12.28c1.01-.99,1.07-2.57.17-3.62-3.86-4.48-11.32-9.82-24.99-9.82-7.64,0-14.26,2.3-19.13,6.64-.53.48-6.55,6.51-10.22,10.2-.62.63-1.52.9-2.38.72-.87-.17-1.59-.77-1.92-1.59-4.19-10.3-12.48-15.52-24.62-15.52-2.3,0-4.63.31-6.91.91-.79.21-1.63.04-2.28-.46-.65-.5-1.03-1.27-1.03-2.09v-11.06c0-.87.43-1.69,1.16-2.18.72-.49,1.64-.59,2.45-.26,3.08,1.23,6.44,1.86,9.97,1.86,10.64,0,16.72-4.73,20.37-8.28.55-.53,1.3-.8,2.05-.74.76.06,1.45.45,1.91,1.06.15.2.28.35.42.47,5.85,4.9,13.71,7.49,22.72,7.49,8.17,0,15.08-2.49,19.45-7.02.05-.06.11-.11.17-.16l10.06-10.06s.06-.06.09-.09c3.22-3.22,4.92-7.34,4.92-11.94,0-5.88-2.4-9.81-7.56-12.37-.74-.37-1.26-1.06-1.42-1.87-.15-.81.09-1.65.64-2.26l5.54-6.07c.48-.53.73-1.25.68-1.96-.05-.72-.4-1.39-.95-1.85-4.9-4.03-12.46-6.34-20.77-6.34-7.28,0-14,2.37-17.98,6.35l-5.56,5.59c-.57.57-1.37.85-2.18.76-.8-.1-1.52-.56-1.94-1.25-4.41-7.27-11.8-11.45-20.29-11.45-7.08,0-13.58,2.84-18.31,7.99-.03.03-.05.06-.08.09l-4.33,4.31c-.76.75-1.89.97-2.87.57-.98-.41-1.62-1.37-1.62-2.43v-7.07c0-1.45-1.18-2.63-2.63-2.63h-13.51c-1.45,0-2.63,1.18-2.63,2.62,0,1.45-1.18,2.62-2.63,2.62h0c-1.45,0-2.63-1.18-2.63-2.63v-.14c0-1.08-.68-2.07-1.69-2.46-1.36-.52-3.24-.82-5.15-.82-2.45,0-4.93.73-7.38,2.17-1.08.63-2.45.43-3.29-.5-.51-.56-1.2-.87-1.95-.87h-13.19c-.76,0-1.33.33-1.68.63l-7.57,7.55c-.53.53-1.25.8-1.99.77-.74-.04-1.44-.39-1.91-.96-4.75-5.82-12.16-9.15-20.33-9.15-6.65,0-12.97,2.55-17.78,7.18l-11.09,11.08s-.06.07-.1.1c-4.68,4.83-7.25,11.17-7.25,17.86,0,7.09,2.84,13.69,8.01,18.6.51.49.81,1.17.82,1.88,0,.71-.27,1.39-.77,1.9l-7.23,7.23c-.54.53-.83,1.2-.83,1.91v69.77c0,11.91,7.36,19.31,19.2,19.31,3.78,0,6.36-.7,9.07-1.76.28-.11.56-.29.82-.53l.26-.25h0s3.98-4.01,3.98-4.01c.5-.5,1.18-.79,1.89-.78.71,0,1.39.3,1.88.81,3.97,4.13,9.89,6.51,16.25,6.51,5.72,0,10.54-1.41,14.33-4.18,1.01-.74,2.41-.67,3.34.19,2.72,2.5,6.26,3.77,10.51,3.77,3.89,0,7.11-.83,9.85-2.54.16-.1.32-.23.48-.39l1.92-1.92c.52-.52,1.25-.8,1.98-.77.74.03,1.43.38,1.9.95.26.31.57.55.92.71,6.57,3.01,13.54,4.3,23.3,4.3s18.18-3.1,24.4-8.97l6.57-6.58c.51-.51,1.18-.77,1.86-.77ZM447.03,199.26h.01-.01ZM403.92,180.22c-.51,0-1.02-.15-1.46-.45-1.11-.74-1.48-2.19-.88-3.38.57-1.13,1.09-2.3,1.53-3.47.29-.78.94-1.37,1.73-1.6.8-.23,1.66-.07,2.32.43.54.41,1.11.81,1.7,1.19.64.41,1.07,1.08,1.18,1.84.11.76-.12,1.52-.62,2.1l-.49.57c-.38.43-.88.73-1.45.85-.56.12-1.07.42-1.45.85l-.12.14c-.52.6-1.25.91-2,.91ZM273.6,170.86c-.33,0-.66-.06-.97-.19-1-.4-1.66-1.37-1.66-2.45v-13.63c0-.99.56-1.9,1.45-2.35.89-.45,1.95-.36,2.75.23l8.17,6.03c1.13.83,1.41,2.41.63,3.58-.45.67-.87,1.42-1.29,2.3-.25.51-.65.93-1.15,1.19-2.06,1.08-3.84,2.32-5.3,3.71,0,0,0,0,0,0-.15.14-.29.29-.42.44l-.29.32c-.51.54-1.2.82-1.91.82ZM276.23,159.81v2.77c.66-.44,1.34-.85,2.06-1.25l-2.06-1.52ZM273.6,142.8c-.17,0-.34-.02-.51-.05-1.21-.24-2.12-1.3-2.12-2.58h0v-27.76c0-.73.3-1.43.84-1.93s1.25-.75,1.98-.7h.17s12.92.02,12.92.02c.79,0,1.36-.35,1.72-.66l2.07-2.05c.61-.61,1.49-.87,2.33-.72.85.16,1.57.72,1.92,1.51.43.95,1.37,1.56,2.39,1.56h13.51c.71,0,1.26-.3,1.61-.58l10.9-10.87c.31-.35.67-.93.67-1.73v-16.2c0-.76.33-1.48.9-1.98.57-.5,1.33-.73,2.08-.63.72.1,1.45-.11,2-.56.62-.5.97-1.24.98-2.03,0-1.45,1.19-2.62,2.63-2.62h0c1.45,0,2.62,1.18,2.62,2.63v31.92c0,.86.43,1.67,1.14,2.16.64.44,1.05,1.15,1.12,1.93.07.78-.21,1.55-.76,2.1l-.76.76c-.5.5-.78,1.17-.78,1.87v14c0,1.12-.7,2.11-1.75,2.48-1.05.37-2.22.04-2.93-.82-4.41-5.44-12.24-8.2-23.28-8.2-8.88,0-16.23,3.05-21.83,9.05,0,0-.07.08-.08.08,0,0-.1.1-.1.1l-9.71,9.67c-.23.24-.5.44-.81.58-.29.13-.6.21-.93.23-.06,0-.11,0-.17,0ZM276.23,115.06v18.76l5.26-5.25c6.58-7.06,15.46-10.77,25.72-10.77,9.6,0,17.2,1.95,22.7,5.81v-7.99c0-1.61.48-3.14,1.37-4.44-.85-1.28-1.33-2.8-1.33-4.38v-24.51c-.23.08-.46.15-.69.21v13.76c0,1.97-.74,3.86-2.09,5.33-.03.03-.05.06-.08.08l-11.03,11c-.05.05-.11.1-.16.15-1.43,1.21-3.24,1.87-5.07,1.87h-13.51c-1.87,0-3.63-.67-5.02-1.81l-.04.04s-.06.05-.08.08c-1.46,1.33-3.34,2.06-5.29,2.06h-10.64Z"/><path class="cls-5" d="M450.64,150.65l12.31-12.28c1.98-1.94,2.12-5.09.31-7.2-4.21-4.9-12.32-10.74-26.99-10.74-8.3,0-15.52,2.53-20.88,7.31-.65.58-10.34,10.3-10.34,10.3-3.78-9.28-11.55-17.17-27.06-17.17-2.72,0-5.29.39-7.58,1v-11.06c3.31,1.32,7,2.05,10.95,2.05,10.77,0,17.5-4.45,22.2-9.03.25.34.52.65.85.92,6.33,5.3,14.77,8.11,24.42,8.11,9.1,0,16.62-2.93,21.35-7.83h0s10.28-10.27,10.28-10.27h0c3.63-3.62,5.7-8.36,5.7-13.81,0-7.88-3.99-12.23-9.02-14.73l5.54-6.07c.97-1.07,1.47-2.48,1.36-3.92-.1-1.44-.79-2.77-1.91-3.69-5.36-4.41-13.54-6.94-22.44-6.94-7.33,0-15,2.29-19.84,7.12l-5.57,5.59c-4.71-7.77-12.87-12.71-22.54-12.71-8.07,0-15.23,3.37-20.25,8.84l-4.33,4.31v-7.07c0-2.91-2.36-5.27-5.27-5.27h-13.51c-2.9,0-5.25,2.35-5.26,5.25v-.14c0-2.18-1.34-4.13-3.38-4.92-1.67-.64-3.84-1-6.1-1-2.94,0-5.91.88-8.72,2.54-.96-1.06-2.36-1.73-3.9-1.73h-13.19c-1.34,0-2.55.51-3.48,1.34l-7.64,7.62c-5.1-6.24-13.07-10.12-22.37-10.12-7.61,0-14.52,3.02-19.61,7.92h0s-11.25,11.24-11.25,11.24h0c-4.94,5.11-8,12.06-8,19.71,0,8.07,3.39,15.35,8.82,20.51l-7.23,7.23c-.98.96-1.6,2.29-1.6,3.77v69.77c0,13.33,8.57,21.95,21.84,21.95,4.43,0,7.44-.93,10.02-1.94.63-.24,1.18-.61,1.65-1.05,0,0,.3-.28.31-.29l4.02-4.04c4.64,4.84,11.42,7.32,18.15,7.32,7.22,0,12.32-2.09,15.88-4.69,3.17,2.92,7.37,4.47,12.3,4.47,4.4,0,8.08-.96,11.24-2.94.35-.22.67-.48.96-.77l1.9-1.9c.49.59,1.12,1.08,1.85,1.42,6.94,3.18,14.24,4.54,24.4,4.54s19.66-3.51,26.21-9.68h0s6.62-6.63,6.62-6.63c-.51,1.74-.11,3.68,1.2,5.08,2.48,2.64,11.95,11.24,29.76,11.24,10.57,0,18.22-3.34,23.21-8.2h0c.1-.06,10.11-10.14,10.11-10.14,5.16-4.79,7.62-11.17,7.62-17.31,0-11.63-6.88-17.53-14.12-21.16ZM274.41,167.37c-.29.27-.54.57-.81.86v-13.63l8.17,6.03c-.55.83-1.03,1.71-1.47,2.61-2.23,1.16-4.21,2.53-5.89,4.13ZM332.55,115.62v14c-4.94-6.1-13.4-9.18-25.33-9.18s-19.66,5.49-23.76,9.89c-.02.02-.04.05-.06.07h0l-.04.04-9.76,9.72h0s0,0,0,0h0v-27.76c.12,0,.25.03.37.03h12.9c1.36,0,2.59-.53,3.52-1.38l2.12-2.09c.82,1.83,2.66,3.11,4.79,3.11h13.51c1.29,0,2.46-.48,3.38-1.25l11.03-11c.86-.94,1.4-2.18,1.4-3.55v-16.2c1.43.19,2.88-.21,4.01-1.12,1.23-.99,1.94-2.48,1.95-4.06v31.92c0,1.79.9,3.38,2.27,4.33l-.76.76h0c-.96.95-1.55,2.27-1.55,3.73ZM405.57,173.86c.61.46,1.23.9,1.87,1.31l-.49.57c-1.12.24-2.14.83-2.89,1.7l-.13.15c.61-1.2,1.16-2.44,1.64-3.72Z"/><circle class="cls-8" cx="351.98" cy="20.01" r="3.49"/><path class="cls-4" d="M351.98,40.02c-5.82,0-8.97-10.31-8.97-20.01s3.14-20.01,8.97-20.01,8.97,10.31,8.97,20.01-3.14,20.01-8.97,20.01ZM351.98,3.16c-2.42,0-5.81,6.41-5.81,16.85s3.38,16.85,5.81,16.85,5.81-6.41,5.81-16.85-3.38-16.85-5.81-16.85Z"/><path class="cls-4" d="M363.05,32.8c-4.49,0-10.41-2.06-15.55-5.03-8.4-4.85-15.76-12.73-12.84-17.77,2.91-5.04,13.41-2.61,21.81,2.24h0c8.4,4.85,15.76,12.73,12.84,17.77-1.13,1.96-3.41,2.79-6.26,2.79ZM340.98,10.36c-1.87,0-3.14.45-3.59,1.23-1.21,2.1,2.65,8.23,11.69,13.45,9.04,5.22,16.28,5.5,17.5,3.39,1.21-2.1-2.65-8.23-11.69-13.45h0c-5.71-3.3-10.7-4.62-13.91-4.62Z"/><path class="cls-4" d="M340.91,32.8c-2.85,0-5.13-.83-6.26-2.79-2.91-5.04,4.44-12.92,12.84-17.77h0c8.4-4.85,18.9-7.28,21.81-2.24,2.91,5.04-4.44,12.92-12.84,17.77-5.14,2.97-11.06,5.03-15.55,5.03ZM362.99,10.36c-3.21,0-8.2,1.32-13.91,4.62h0c-9.04,5.22-12.9,11.35-11.69,13.45,1.21,2.1,8.45,1.82,17.5-3.4,9.04-5.22,12.9-11.35,11.69-13.45-.45-.77-1.71-1.23-3.59-1.23Z"/><circle class="cls-8" cx="340.08" cy="31.03" r="2.56"/><circle class="cls-8" cx="355.82" cy="3.48" r="2.56"/><circle class="cls-8" cx="367.95" cy="25.74" r="2.56"/><path class="cls-6" d="M244.82,91.57c-.56,0-1.01-.45-1.01-1.01s.45-1.01,1.01-1.01,1.01.45,1.01,1.01-.45,1.01-1.01,1.01ZM244.82,89.87c-.38,0-.68.31-.68.68s.31.68.68.68.68-.31.68-.68-.31-.68-.68-.68Z"/><path class="cls-6" d="M262.21,197.87c-.56,0-1.01-.45-1.01-1.01s.45-1.01,1.01-1.01,1.01.45,1.01,1.01-.45,1.01-1.01,1.01ZM262.21,196.18c-.38,0-.68.31-.68.68s.31.68.68.68.68-.31.68-.68-.31-.68-.68-.68Z"/><path class="cls-6" d="M420.46,196.16c-.56,0-1.01-.45-1.01-1.01s.45-1.01,1.01-1.01,1.01.45,1.01,1.01-.45,1.01-1.01,1.01ZM420.46,194.46c-.38,0-.68.31-.68.68s.31.68.68.68.68-.31.68-.68-.31-.68-.68-.68Z"/><path class="cls-8" d="M241.67,138.4c-.68,0-1.24-.56-1.24-1.24s.56-1.24,1.24-1.24,1.24.56,1.24,1.24-.56,1.24-1.24,1.24ZM241.67,136.43c-.4,0-.73.33-.73.73s.33.73.73.73.73-.33.73-.73-.33-.73-.73-.73Z"/><path class="cls-6" d="M244.82,123.98c-.39,0-.71-.32-.71-.71s.32-.71.71-.71.71.32.71.71-.32.71-.71.71ZM244.82,122.84c-.23,0-.42.19-.42.42s.19.42.42.42.42-.19.42-.42-.19-.42-.42-.42Z"/><circle class="cls-8" cx="303.18" cy="100.28" r=".64"/><circle class="cls-8" cx="245.49" cy="160" r=".64"/><circle class="cls-8" cx="307.63" cy="107.93" r=".48"/><circle class="cls-8" cx="343.37" cy="102.67" r=".48"/><circle class="cls-8" cx="438.62" cy="102.42" r=".48"/><circle class="cls-8" cx="273.28" cy="103.34" r=".48"/><circle class="cls-8" cx="337.74" cy="126.71" r=".48"/><path class="cls-7" d="M286.55,197.3c-.62,0-1.12-.5-1.12-1.13s.5-1.13,1.12-1.13,1.13.5,1.13,1.13-.5,1.13-1.13,1.13ZM286.55,195.51c-.37,0-.67.3-.67.67s.3.67.67.67.67-.3.67-.67-.3-.67-.67-.67Z"/><path class="cls-7" d="M299.48,108.7c-.62,0-1.13-.5-1.13-1.13s.5-1.13,1.13-1.13,1.12.5,1.12,1.13-.5,1.13-1.12,1.13ZM299.48,106.91c-.37,0-.67.3-.67.67s.3.67.67.67.67-.3.67-.67-.3-.67-.67-.67Z"/><path class="cls-7" d="M338.67,143.77c-.62,0-1.13-.5-1.13-1.13s.5-1.13,1.13-1.13,1.13.5,1.13,1.13-.5,1.13-1.13,1.13ZM338.67,141.98c-.37,0-.67.3-.67.67s.3.67.67.67.67-.3.67-.67-.3-.67-.67-.67Z"/><path class="cls-4" d="M343.42,87.78c-.54,0-.98-.44-.98-.98s.44-.98.98-.98.98.44.98.98-.44.98-.98.98ZM343.42,86.32c-.26,0-.48.21-.48.48s.21.48.48.48.48-.21.48-.48-.21-.48-.48-.48Z"/><circle class="cls-7" cx="382.66" cy="102.8" r=".69"/><circle class="cls-7" cx="342.89" cy="172.26" r=".69"/><circle class="cls-7" cx="320.93" cy="199.36" r=".69"/><circle class="cls-7" cx="445.86" cy="101.97" r=".69"/><circle class="cls-7" cx="421.28" cy="167.06" r=".69"/><circle class="cls-7" cx="263.79" cy="100.32" r=".64"/><circle class="cls-7" cx="240.47" cy="119.96" r=".64"/><path class="cls-6" d="M417.32,103.43c-.73,0-1.33-.6-1.33-1.33s.6-1.33,1.33-1.33,1.33.6,1.33,1.33-.6,1.33-1.33,1.33ZM417.32,101.49c-.34,0-.62.28-.62.62s.28.62.62.62.62-.28.62-.62-.28-.62-.62-.62Z"/><path class="cls-6" d="M422.27,203.15c-.5,0-.91-.41-.91-.91s.41-.91.91-.91.91.41.91.91-.41.91-.91.91ZM422.27,201.81c-.23,0-.42.19-.42.42s.19.42.42.42.42-.19.42-.42-.19-.42-.42-.42Z"/><circle class="cls-4" cx="338.48" cy="95.22" r=".46"/><circle class="cls-4" cx="341.48" cy="115.99" r=".46"/><circle class="cls-4" cx="280.56" cy="105.88" r=".7"/><circle class="cls-4" cx="298.51" cy="201.22" r=".7"/><circle class="cls-8" cx="314.86" cy="193.98" r=".7"/><circle class="cls-4" cx="245.49" cy="72.32" r=".7"/><circle class="cls-4" cx="432.55" cy="171.15" r=".7"/><circle class="cls-8" cx="430.09" cy="197.95" r=".7"/><circle class="cls-4" cx="346.61" cy="196.46" r=".61"/><circle class="cls-4" cx="424.46" cy="107.11" r=".61"/><circle class="cls-4" cx="410.22" cy="155.39" r=".61"/><path class="cls-4" d="M314.07,103.69c-.52,0-.93-.42-.93-.94s.42-.94.93-.94.94.42.94.94-.42.94-.94.94ZM314.07,102.48c-.15,0-.27.12-.27.27s.12.27.27.27.27-.12.27-.27-.12-.27-.27-.27Z"/><path class="cls-4" d="M343.21,132.33c-.52,0-.94-.42-.94-.94s.42-.94.94-.94.94.42.94.94-.42.94-.94.94ZM343.21,131.12c-.15,0-.27.12-.27.27s.12.27.27.27.27-.12.27-.27-.12-.27-.27-.27Z"/><path class="cls-4" d="M411.42,199.2c-.52,0-.94-.42-.94-.94s.42-.94.94-.94.93.42.93.94-.42.94-.93.94ZM411.42,197.99c-.15,0-.27.12-.27.27s.12.27.27.27.27-.12.27-.27-.12-.27-.27-.27Z"/><path class="cls-4" d="M369.9,99.42c-.62,0-1.12-.5-1.12-1.12s.5-1.12,1.12-1.12,1.12.5,1.12,1.12-.5,1.12-1.12,1.12ZM369.9,97.98c-.18,0-.33.15-.33.33s.15.33.33.33.33-.15.33-.33-.15-.33-.33-.33Z"/><path class="cls-8" d="M358.78,202.04c-.54,0-.99-.44-.99-.99s.44-.99.99-.99.99.44.99.99-.44.99-.99.99ZM358.78,200.59c-.25,0-.46.21-.46.46s.21.46.46.46.46-.21.46-.46-.21-.46-.46-.46Z"/><path class="cls-8" d="M340.16,78.69c-.74,0-1.34-.6-1.34-1.34s.6-1.34,1.34-1.34,1.34.6,1.34,1.34-.6,1.34-1.34,1.34ZM340.16,76.62c-.4,0-.73.33-.73.73s.33.73.73.73.73-.33.73-.73-.33-.73-.73-.73Z"/><path class="cls-8" d="M342.11,152.44c-.74,0-1.34-.6-1.34-1.34s.6-1.34,1.34-1.34,1.34.6,1.34,1.34-.6,1.34-1.34,1.34ZM342.11,150.36c-.4,0-.73.33-.73.73s.33.73.73.73.73-.33.73-.73-.33-.73-.73-.73Z"/><path class="cls-4" d="M419.85,80.16c0-.18-.4-.33-.94-.37-.05-.54-.2-.94-.37-.94s-.33.4-.37.94c-.54.05-.94.2-.94.37s.4.33.94.37c.05.54.2.94.37.94s.33-.4.37-.94c.54-.05.94-.2.94-.37Z"/><path class="cls-7" d="M427.76,100.77c0-.18-.4-.33-.94-.37-.05-.54-.2-.94-.37-.94s-.33.4-.37.94c-.54.05-.94.2-.94.37s.4.33.94.37c.05.54.2.94.37.94s.33-.4.37-.94c.54-.05.94-.2.94-.37Z"/><path class="cls-6" d="M374.74,198.39c0-.11-.25-.2-.59-.23-.03-.34-.12-.59-.23-.59s-.2.25-.23.59c-.34.03-.59.12-.59.23s.25.2.59.23c.03.34.12.59.23.59s.2-.25.23-.59c.34-.03.59-.12.59-.23Z"/><path class="cls-4" d="M412.69,164.46c0-.18-.4-.33-.94-.37-.05-.54-.2-.94-.37-.94s-.33.4-.37.94c-.54.05-.94.2-.94.37s.4.33.94.37c.05.54.2.94.37.94s.33-.4.37-.94c.54-.05.94-.2.94-.37Z"/><path class="cls-6" d="M252.07,98.09c0-.15-.33-.27-.79-.31-.04-.46-.17-.79-.31-.79s-.27.33-.31.79c-.46.04-.79.17-.79.31s.33.27.79.31c.04.46.17.79.31.79s.27-.33.31-.79c.46-.04.79-.17.79-.31Z"/><path class="cls-6" d="M294.47,196.14c0-.15-.33-.27-.79-.31-.04-.46-.17-.79-.31-.79s-.27.33-.31.79c-.46.04-.79.17-.79.31s.33.27.79.31c.04.46.17.79.31.79s.27-.33.31-.79c.46-.04.79-.17.79-.31Z"/><path class="cls-6" d="M245.42,195.61c0-.15-.33-.27-.79-.31-.04-.46-.17-.79-.31-.79s-.27.33-.31.79c-.46.04-.79.17-.79.31s.33.27.79.31c.04.46.17.79.31.79s.27-.33.31-.79c.46-.04.79-.17.79-.31Z"/><path class="cls-4" d="M246.83,115.84c0-.15-.33-.27-.79-.31-.04-.46-.17-.79-.31-.79s-.27.33-.31.79c-.46.04-.79.17-.79.31s.33.27.79.31c.04.46.17.79.31.79s.27-.33.31-.79c.46-.04.79-.17.79-.31Z"/><path class="cls-4" d="M294.44,103.04c0-.15-.33-.27-.79-.31-.04-.46-.17-.79-.31-.79s-.27.33-.31.79c-.46.04-.79.17-.79.31s.33.27.79.31c.04.46.17.79.31.79s.27-.33.31-.79c.46-.04.79-.17.79-.31Z"/><path class="cls-4" d="M248.49,86.33c0-.1-.24-.19-.56-.22-.03-.32-.12-.56-.22-.56s-.19.24-.22.56c-.32.03-.56.12-.56.22s.24.19.56.22c.03.32.12.56.22.56s.19-.24.22-.56c.32-.03.56-.12.56-.22Z"/><path class="cls-4" d="M241.03,128.2c0-.1-.24-.19-.56-.22-.03-.32-.12-.56-.22-.56s-.19.24-.22.56c-.32.03-.56.12-.56.22s.24.19.56.22c.03.32.12.56.22.56s.19-.24.22-.56c.32-.03.56-.12.56-.22Z"/><path class="cls-7" d="M393.77,106.19c0-.15-.33-.27-.79-.31-.04-.46-.17-.79-.31-.79s-.27.33-.31.79c-.46.04-.79.17-.79.31s.33.27.79.31c.04.46.17.79.31.79s.27-.33.31-.79c.46-.04.79-.17.79-.31Z"/><path class="cls-6" d="M434.69,108.24c0-.15-.33-.27-.79-.31-.04-.46-.17-.79-.31-.79s-.27.33-.31.79c-.46.04-.79.17-.79.31s.33.27.79.31c.04.46.17.79.31.79s.27-.33.31-.79c.46-.04.79-.17.79-.31Z"/><path class="cls-6" d="M437.5,199.07c0-.15-.33-.27-.79-.31-.04-.46-.17-.79-.31-.79s-.27.33-.31.79c-.46.04-.79.17-.79.31s.33.27.79.31c.04.46.17.79.31.79s.27-.33.31-.79c.46-.04.79-.17.79-.31Z"/><path class="cls-4" d="M242.8,82.31c0-.09-.33-.17-.81-.2.31-.36.49-.65.43-.71-.06-.06-.36.12-.71.43-.03-.47-.11-.81-.2-.81s-.17.33-.2.81c-.36-.31-.65-.49-.71-.43-.06.06.12.36.43.71-.47.03-.81.11-.81.2s.33.17.81.2c-.31.36-.49.65-.43.71s.36-.12.71-.43c.03.47.11.81.2.81s.17-.33.2-.81c.36.31.65.49.71.43.06-.06-.12-.36-.43-.71.47-.03.81-.11.81-.2Z"/><path class="cls-4" d="M367.97,196.8c0-.09-.33-.17-.81-.2.31-.36.49-.65.43-.71-.06-.06-.36.12-.71.43-.03-.47-.11-.81-.2-.81s-.17.33-.2.81c-.36-.31-.65-.49-.71-.43-.06.06.12.36.43.71-.47.03-.81.11-.81.2s.33.17.81.2c-.31.36-.49.65-.43.71s.36-.12.71-.43c.03.47.11.81.2.81s.17-.33.2-.81c.36.31.65.49.71.43.06-.06-.12-.36-.43-.71.47-.03.81-.11.81-.2Z"/><path class="cls-8" d="M252.37,199.09c0-.09-.33-.17-.81-.2.31-.36.49-.65.43-.71-.06-.06-.36.12-.71.43-.03-.47-.11-.81-.2-.81s-.17.33-.2.81c-.36-.31-.65-.49-.71-.43-.06.06.12.36.43.71-.47.03-.81.11-.81.2s.33.17.81.2c-.31.36-.49.65-.43.71s.36-.12.71-.43c.03.47.11.81.2.81s.17-.33.2-.81c.36.31.65.49.71.43.06-.06-.12-.36-.43-.71.47-.03.81-.11.81-.2Z"/><path class="cls-4" d="M242.34,169.96c0-.09-.33-.17-.81-.2.31-.36.49-.65.43-.71-.06-.06-.36.12-.71.43-.03-.47-.11-.81-.2-.81s-.17.33-.2.81c-.36-.31-.65-.49-.71-.43-.06.06.12.36.43.71-.47.03-.81.11-.81.2s.33.17.81.2c-.31.36-.49.65-.43.71s.36-.12.71-.43c.03.47.11.81.2.81s.17-.33.2-.81c.36.31.65.49.71.43.06-.06-.12-.36-.43-.71.47-.03.81-.11.81-.2Z"/><path class="cls-4" d="M377.3,107.36c0-.09-.33-.17-.81-.2.31-.36.49-.65.43-.71-.06-.06-.36.12-.71.43-.03-.47-.11-.81-.2-.81s-.17.33-.2.81c-.36-.31-.65-.49-.71-.43-.06.06.12.36.43.71-.47.03-.81.11-.81.2s.33.17.81.2c-.31.36-.49.65-.43.71s.36-.12.71-.43c.03.47.11.81.2.81s.17-.33.2-.81c.36.31.65.49.71.43.06-.06-.12-.36-.43-.71.47-.03.81-.11.81-.2Z"/><path class="cls-4" d="M339.88,163.88c0-.09-.33-.17-.81-.2.31-.36.49-.65.43-.71-.06-.06-.36.12-.71.43-.03-.47-.11-.81-.2-.81s-.17.33-.2.81c-.36-.31-.65-.49-.71-.43-.06.06.12.36.43.71-.47.03-.81.11-.81.2s.33.17.81.2c-.31.36-.49.65-.43.71s.36-.12.71-.43c.03.47.11.81.2.81s.17-.33.2-.81c.36.31.65.49.71.43.06-.06-.12-.36-.43-.71.47-.03.81-.11.81-.2Z"/><path class="cls-6" d="M404.8,193.61c0-.09-.33-.17-.81-.2.31-.36.49-.65.43-.71-.06-.06-.36.12-.71.43-.03-.47-.11-.81-.2-.81s-.17.33-.2.81c-.36-.31-.65-.49-.71-.43-.06.06.12.36.43.71-.47.03-.81.11-.81.2s.33.17.81.2c-.31.36-.49.65-.43.71s.36-.12.71-.43c.03.47.11.81.2.81s.17-.33.2-.81c.36.31.65.49.71.43.06-.06-.12-.36-.43-.71.47-.03.81-.11.81-.2Z"/><path class="cls-7" d="M244.86,146.21c0-.09-.33-.17-.81-.2.31-.36.49-.65.43-.71-.06-.06-.36.12-.71.43-.03-.47-.11-.81-.2-.81s-.17.33-.2.81c-.36-.31-.65-.49-.71-.43-.06.06.12.36.43.71-.47.03-.81.11-.81.2s.33.17.81.2c-.31.36-.49.65-.43.71s.36-.12.71-.43c.03.47.11.81.2.81s.17-.33.2-.81c.36.31.65.49.71.43.06-.06-.12-.36-.43-.71.47-.03.81-.11.81-.2Z"/><path class="cls-7" d="M268.33,105.08v65.37c0,4.73,2.14,6.31,5.3,6.31,1.24,0,1.8-.11,2.37-.23v13.41c-2.03.79-4.4,1.58-8.12,1.58-10.37,0-16.57-6.09-16.57-16.68v-69.77h17.02Z"/><path class="cls-7" d="M332.47,146.78v25.47c0,3.61,1.35,5.18,4.4,5.18h1.8v11.72c-2.71,1.69-5.64,2.14-8.45,2.14-6.09,0-9.58-2.93-11.5-6.88h-.45c-2.37,3.16-7.1,7.1-16.23,7.1-12.4,0-18.82-8.45-18.82-17.58,0-14.65,13.19-21.42,33.25-20.4v-4.96c0-7.1-3.95-9.24-9.13-9.24-6.09,0-9.36,3.49-10.93,7.21l-12.06-8.9c2.48-3.49,8.79-11.95,22.88-11.95,16.23,0,25.25,5.64,25.25,21.08ZM316.46,165.04c-11.16-.79-16.68,1.8-16.68,7.33,0,3.61,2.48,6.2,6.88,6.2s7.89-1.92,9.81-4.51v-9.02Z"/><path class="cls-7" d="M348.36,105.08h16.79v24.57h.45c2.48-1.69,7.1-3.49,12.4-3.49,14.43,0,25.14,7.89,25.14,31.33,0,19.39-11.38,34.15-32.57,34.15-10.48,0-16.79-1.58-22.2-4.06v-82.51ZM386.23,158.84c0-14.2-4.96-18.71-12.29-18.71-3.95,0-6.99,1.58-8.57,3.38v33.7c1.92.68,4.06.9,6.42.9,9.02,0,14.43-5.75,14.43-19.27Z"/><path class="cls-7" d="M412.6,145.43c0-10.37,8.9-19.73,23.67-19.73,11.5,0,18.82,4.06,22.99,8.9l-10.93,10.71c-2.25-2.59-6.65-5.97-12.51-5.97-3.83,0-6.31,2.03-6.31,4.96,0,9.58,29.98,6.2,29.98,27.5,0,8.45-6.65,19.84-25.14,19.84-13.98,0-22.43-5.86-25.92-9.58l10.14-11.72c2.82,3.27,9.02,7.89,16.68,7.89,5.3,0,7.33-2.48,7.33-5.41,0-9.24-29.98-6.2-29.98-27.39Z"/><path class="cls-6" d="M321.36,96.26h-13.51v-44.57h13.19v7.28c3.24-4.53,7.77-8.09,12.62-8.09,1.62,0,3.16.24,4.21.65v12.78c-1.13-.24-2.75-.49-4.77-.49-7.12,0-10.44,4.85-11.73,7.77v24.67Z"/><path class="cls-6" d="M361.9,96.26h-13.51v-44.57h13.51v44.57Z"/><path class="cls-6" d="M382.44,77.74c1.21,6.23,5.5,7.77,10.27,7.77,4.45,0,7.85-1.62,9.87-3.48l9.79,5.5c-4.69,5.18-10.6,9.55-20.47,9.55-13.51,0-22.57-9.63-22.57-23.14s10.11-23.05,22.41-23.05,21.6,10.76,21.6,23.54c0,.97-.16,2.18-.24,3.32h-30.66ZM391.5,62.12c-4.21,0-7.6,2.75-8.9,7.6h17.23c-.65-3.88-4.21-7.6-8.33-7.6Z"/><path class="cls-6" d="M460.89,80.97c0,9.71-8.66,16.1-21.52,16.1-11.49,0-18.04-4.37-21.03-6.88l8.25-7.85c4.37,2.75,8.9,3.64,13.27,3.64,4.04,0,7.85-1.05,7.85-3.4,0-6.63-27.59,1.7-27.59-17.55,0-7.85,6.96-14.16,19.58-14.16,8.09,0,14.97,2.35,19.09,5.74l-7.6,8.33c-2.75-1.46-7.04-2.99-11.73-2.99-4.04,0-6.71.81-6.71,2.51,0,6.31,28.15-.89,28.15,16.5Z"/><path class="cls-6" d="M297.41,72.39c0-13.21-10.77-21.88-23.05-21.88s-23.05,10.34-23.05,23.05,10.34,23.05,23.05,23.05h1.02v-12.89h-1.02c-5.6,0-10.16-4.56-10.16-10.16s4.56-10.16,10.16-10.16,10.04,4.45,10.15,9.94v.06s0,22.2,0,22.2v1.02h12.9v-24.23h0Z"/></g></svg>